#!OML:ASF F:\VICON\USERDATA\INSTALL\rory3\rory3.ASF
:FULLY-SPECIFIED
:DEGREES
64
root 0.04095090735748161 17.503182410111833 39.8726163352253 1.2707967475329296 5.561397567162491 -1.0939594258125698
lfemur -15.241964786787767 -2.3722622931381676 -24.39175481763094
ltibia 43.868417763967415
lfoot -11.406762502066899 -4.312426018909777
ltoes -3.0567253748421948
rfemur -13.330932387667872 -3.0591485558450735 25.247585055404496
rtibia 89.8711003823674
rfoot 6.217204100296455 -12.337820522801096
rtoes 23.248762368027393
lowerback 15.335167004533174 1.1188001268140917 0.22669936289270964
upperback -0.48219126545266733 1.6367888304725322 0.586962679242061
thorax -9.695629780249066 0.8326348945202451 0.4890933142287105
lowerneck -20.953440020939073 -4.137600774128363 -1.7141529762012744
upperneck 13.163112386917728 -5.869794134334616 3.2647810255760032
head 7.681220836732389 -2.561858235934601 0.7149542705600389
lclavicle -1.7288340370471396e-15 1.783627731994796e-15
lhumerus -46.23286370010442 -17.0633906618067 98.74786617173918
lradius 107.64282706527122
lwrist 34.9492233309437
lhand -25.765743085308312 1.66432614574587
lfingers 7.12502
lthumb 0.7719621205321651 31.65358203864415
rclavicle -1.7288340367368674e-15 1.7836277322206436e-15
rhumerus -47.03529810024141 10.775795052626718 -99.05115271239096
rradius 108.05466399712674
rwrist -8.358250654059775
rhand -16.309372828481326 39.112660772731516
rfingers 7.12502
rthumb 9.628698998628165 8.830012922912058
65
root 0.0193054014328074 17.44449200978489 39.523140383422636 1.5649676068983172 5.275934849003311 -0.8958524317614502
lfemur -13.073019280027292 -2.5552863063121416 -24.773318548755675
ltibia 44.6402765170109
lfoot -13.284985936982235 -2.9495134948918267
ltoes -4.949270230254531
rfemur -16.136097854374498 -3.2967976405130766 24.803221395147514
rtibia 92.08326059205116
rfoot 5.018331761898174 -10.470542868976313
rtoes 21.75205371188585
lowerback 15.442676311189091 0.9169761227476741 -0.21797600234390568
upperback -0.49974326298830907 1.246994093460479 0.5046369371519257
thorax -9.834645912031014 0.668634262480553 1.0252914417399204
lowerneck -21.2083764820524 -3.985587309447102 -1.6942560612911317
upperneck 13.121799637325719 -5.621566418338289 3.239157237768974
head 7.698070251247406 -2.432804430328058 0.7182695278426444
lclavicle -1.7288340370467471e-15 1.783627731995463e-15
lhumerus -43.193100701582885 -17.928921682717558 98.55896823797266
lradius 108.23053620077606
lwrist 34.760038278078014
lhand -25.646317306710397 1.7798287182920103
lfingers 7.12502
lthumb 0.8587563641344858 31.757565824749356
rclavicle -1.7288340367387808e-15 1.7836277322196958e-15
rhumerus -47.71463249236405 10.264859091238359 -99.34634924193351
rradius 107.5003642016459
rwrist -8.665054140028499
rhand -16.146982918329922 39.12989426924706
rfingers 7.12502
rthumb 9.74217436620712 8.768340253467098
66
root 0.007020808987035665 17.429170412626508 39.022580942932656 2.000839671481587 4.946194202602391 -0.8967949447826784
lfemur -10.902256189477333 -2.685554636095268 -24.923151565551187
ltibia 45.221490116172845
lfoot -14.88716385167493 -1.5538304260914337
ltoes -6.223972975144432
rfemur -18.950173251720138 -3.341836720586468 24.6613860417335
rtibia 92.24843665788978
rfoot 4.100813152305512 -8.686313070973998
rtoes 19.296667005020776
lowerback 15.47071597381473 0.6814569530071252 -0.42285984780742436
upperback -0.563209939841203 0.8403944761933643 0.5319507624387765
thorax -9.90039741033548 0.4980606428453507 1.5519270143970636
lowerneck -21.431969569186474 -3.8168728240146317 -1.6803104435386214
upperneck 13.199185186040799 -5.325637125095287 3.167585484335305
head 7.7356267345503245 -2.285080038923041 0.7077844500928614
lclavicle -1.728834037039516e-15 1.7836277320009056e-15
lhumerus -40.394497227206706 -18.285276904602 98.32816790581009
lradius 109.1335748407144
lwrist 34.79025171305615
lhand -25.417199796233046 2.0031719609597327
lfingers 7.12502
lthumb 1.0220804496188007 31.88304690426844
rclavicle -1.7288340367438733e-15 1.7836277322161605e-15
rhumerus -48.58164955367568 9.885863708027866 -99.50151974609744
rradius 107.2074602032217
rwrist -9.227971276950976
rhand -16.109587373772595 39.11770794408548
rfingers 7.12502
rthumb 9.870229009771805 8.807137914721775
67
root -0.0063820461239099124 17.438769580391266 38.357594416905236 2.3792505121973857 4.4114025167994955 -0.9388935333327919
lfemur -8.556907611147858 -2.677290307725854 -24.952068831127097
ltibia 45.485898165966596
lfoot -15.929668008807969 -0.2835704416302125
ltoes -9.225379866983337
rfemur -21.722027600896755 -3.1444532396762876 24.632827309566242
rtibia 90.8869770391454
rfoot 2.913227650436573 -7.3965292529732505
rtoes 16.966533811654486
lowerback 15.45272334160883 0.4590914505149707 -0.6040619446971032
upperback -0.6652986370749439 0.47683859950480834 0.6261653593587109
thorax -9.94773809564689 0.33643026485836836 2.031500282930596
lowerneck -21.518617401143388 -3.623721122871446 -1.6789963662887761
upperneck 13.321612783258141 -5.0036215541321125 3.0833364740718365
head 7.7675074880006765 -2.133888393456344 0.6994668852062655
lclavicle -1.7288340370374469e-15 1.783627732002656e-15
lhumerus -38.054065901931146 -18.19457206390257 98.06752998420227
lradius 110.43112097226337
lwrist 34.92105862006856
lhand -25.249398224222166 2.2194186443985955
lfingers 7.12502
lthumb 1.1740443222112837 32.08802037920403
rclavicle -1.7288340367457204e-15 1.7836277322150407e-15
rhumerus -49.525246412587734 9.748973010993268 -99.58393977099834
rradius 107.15176129790395
rwrist -9.964323419605572
rhand -15.97147171173654 39.23131026900636
rfingers 7.12502
rthumb 9.954075947164585 8.874329804243517
68
root -0.0037481947405366978 17.48060155329086 38.08996455722727 2.757848669755967 3.7973186227420963 -1.0237052230893755
lfemur -5.97931159951542 -2.5111779325096584 -24.87858373014999
ltibia 45.50557238811098
lfoot -16.02410678433591 0.7717627780868623
ltoes -13.879644973161577
rfemur -24.405756255355726 -2.7647578355689584 24.725670257531846
rtibia 87.97115224106132
rfoot 1.376242804358573 -6.744221926270844
rtoes 14.798527726153017
lowerback 15.296968523700569 0.22059837778048763 -0.7136053958746482
upperback -0.8098204583102262 0.10125824090391466 0.7968186024934472
thorax -9.956283705698986 0.15609042627384373 2.4745489280841046
lowerneck -21.515578655694227 -3.401351284768337 -1.6654721591998285
upperneck 13.591351121921667 -4.649483826172224 2.9655340861599964
head 7.848282029639779 -1.959192759631989 0.6816015311335591
lclavicle -1.728834037029188e-15 1.7836277320088e-15
lhumerus -36.48667746562201 -17.957145049974155 97.75606904410186
lradius 111.98362087220555
lwrist 35.16588087806444
lhand -25.110921443844852 2.5196110964533296
lfingers 7.12502
lthumb 1.276724366732228 32.347046817874116
rclavicle -1.7288340367501418e-15 1.7836277322119622e-15
rhumerus -50.51818695664261 9.799263630881809 -99.52895586553798
rradius 107.28366952849831
rwrist -10.751052023748173
rhand -15.922366262796842 39.32661197391277
rfingers 7.12502
rthumb 10.139727000035075 9.078237032681782
69
root 0.005682523543487 17.56926148071543 38.22813373355094 3.25654167950186 3.1397665205573846 -1.2475395087589423
lfemur -3.3470880810119983 -2.290722663520376 -24.633538677926722
ltibia 45.097491157502674
lfoot -15.231891433911716 1.2671069200661433
ltoes -18.96182559305072
rfemur -26.73881297805316 -2.2236896328117624 25.039143232129163
rtibia 83.83103773592907
rfoot -0.3858653976015489 -6.64478879477631
rtoes 11.626412583143418
lowerback 15.081264714977534 -0.013910096499446967 -0.6541593219859985
upperback -1.0146183725468063 -0.2174762728461963 1.0654435516860616
thorax -9.938256726083523 0.012992273421068679 2.902069609267569
lowerneck -21.384278292196747 -3.205202968558415 -1.6848399331537345
upperneck 13.990529925661935 -4.324684126392077 2.8079525938367715
head 7.926615027256647 -1.8193301790732586 0.6530212006702459
lclavicle -1.7288340370278387e-15 1.783627732010052e-15
lhumerus -35.71561564421564 -17.705364476239144 97.42319500199977
lradius 113.68955018870214
lwrist 35.54474626120306
lhand -24.828128251317864 2.8337520163506644
lfingers 7.12502
lthumb 1.5347895883314595 32.62260560854959
rclavicle -1.7288340367525912e-15 1.7836277322104322e-15
rhumerus -51.57914072261301 9.876797162210684 -99.41611241316814
rradius 107.56986902731649
rwrist -11.341908017123533
rhand -15.864771308176119 39.47664066739363
rfingers 7.12502
rthumb 10.221516271838995 9.287191265196885
70
root 0.017292416489222417 17.684919281123836 38.48942471022685 3.7399885575714955 2.3513048802396375 -1.4483062292114959
lfemur -1.0290382093221542 -2.0278701593591744 -24.425563585564014
ltibia 44.63885674695492
lfoot -13.91058932799779 0.8153498300661273
ltoes -23.86751660614643
rfemur -28.814939131538353 -1.5008471219530453 25.389293310328878
rtibia 78.86391565700124
rfoot -1.924495559551059 -6.798357630589366
rtoes 8.556388167616124
lowerback 14.808633419832054 -0.2278693777386367 -0.6521122404384128
upperback -1.271715233356529 -0.5153505030389169 1.3597832241779673
thorax -9.916351731687339 -0.10495651391830885 3.327271912929578
lowerneck -21.1801892563061 -3.0149070396437763 -1.7085778264041973
upperneck 14.488950969041202 -4.010381640167541 2.63779430046772
head 8.049326565231109 -1.6755034025251214 0.6224890962217975
lclavicle -1.7288340370302712e-15 1.783627732008674e-15
lhumerus -35.58730320015815 -17.54823981921179 97.09385334987981
lradius 115.28969321519864
lwrist 35.87415776545296
lhand -24.579855555174152 2.969331468252527
lfingers 7.12502
lthumb 1.778219608842 32.77987727038262
rclavicle -1.7288340367551676e-15 1.7836277322089436e-15
rhumerus -52.59134339319826 9.99498759869996 -99.22328043778026
rradius 107.91241575707514
rwrist -11.821143223984082
rhand -15.911008482676955 39.579310262571624
rfingers 7.12502
rthumb 10.263839479088004 9.505274588880544
